<svg width="64" height="71" viewBox="0 0 64 71" fill="none" xmlns="http://www.w3.org/2000/svg">
<path fill-rule="evenodd" clip-rule="evenodd" d="M35.324 1.01411C32.982 -0.338039 30.0966 -0.338036 27.7546 1.01411L3.78472 14.8531C1.44273 16.2053 0 18.7042 0 21.4085V49.0865C0 51.7908 1.44273 54.2897 3.78472 55.6418L27.7546 69.4808C30.0966 70.833 32.982 70.833 35.324 69.4808L59.2939 55.6418C61.6359 54.2896 63.0786 51.7908 63.0786 49.0865V21.4084C63.0786 18.7041 61.6359 16.2053 59.2939 14.8531L35.324 1.01411ZM33.5112 17.4118C32.291 16.7073 30.7877 16.7073 29.5675 17.4118L17.079 24.622C15.8588 25.3265 15.1071 26.6284 15.1071 28.0374V42.4579C15.1071 43.8668 15.8588 45.1688 17.079 45.8733L29.5675 53.0835C30.7877 53.788 32.291 53.788 33.5112 53.0835L45.9997 45.8733C47.2199 45.1688 47.9716 43.8668 47.9716 42.4579V28.0374C47.9716 26.6284 47.2199 25.3265 45.9997 24.622L33.5112 17.4118Z" fill="#00E0FF"/>
</svg>
