<svg width="261" height="292" viewBox="0 0 261 292" fill="none" xmlns="http://www.w3.org/2000/svg">
<path fill-rule="evenodd" clip-rule="evenodd" d="M260.851 81.3634C260.851 76.2391 258.117 71.504 253.68 68.9419L137.597 1.92161C133.159 -0.640538 127.692 -0.640537 123.254 1.92161L7.17155 68.9419C2.73378 71.504 0 76.2391 0 81.3634V205.053C0 213.334 8.96445 218.509 16.136 214.369L66.3368 185.385C69.6652 183.464 71.7155 179.912 71.7155 176.069V120.698C71.7155 116.855 73.7658 113.304 77.0942 111.382L125.047 83.6964C128.375 81.7748 132.476 81.7748 135.804 83.6964L183.757 111.382C187.085 113.304 189.136 116.855 189.136 120.698V176.069C189.136 179.912 187.085 183.464 183.757 185.385L135.804 213.071C132.476 214.993 130.426 218.544 130.426 222.387V280.354C130.426 288.635 139.39 293.811 146.562 289.67L253.68 227.825C258.117 225.263 260.851 220.528 260.851 215.404V81.3634Z" fill="#247DF3"/>
</svg>
