<svg width="1038" height="426" viewBox="0 0 1038 426" fill="none" xmlns="http://www.w3.org/2000/svg">
<path fill-rule="evenodd" clip-rule="evenodd" d="M260.851 146.363C260.851 141.239 258.117 136.504 253.68 133.942L137.597 66.9216C133.159 64.3595 127.692 64.3595 123.254 66.9216L7.17155 133.942C2.73378 136.504 0 141.239 0 146.363V270.053C0 278.334 8.96445 283.509 16.136 279.369L66.3368 250.385C69.6652 248.464 71.7155 244.912 71.7155 241.069V185.698C71.7155 181.855 73.7658 178.304 77.0942 176.382L125.047 148.696C128.375 146.775 132.476 146.775 135.804 148.696L183.757 176.382C187.085 178.304 189.136 181.855 189.136 185.698V241.069C189.136 244.912 187.085 248.464 183.757 250.385L135.804 278.071C132.476 279.993 130.426 283.544 130.426 287.387V345.354C130.426 353.635 139.39 358.811 146.562 354.67L253.68 292.825C258.117 290.263 260.851 285.528 260.851 280.404V146.363Z" fill="url(#paint0_linear_197_34)"/>
<rect x="694" y="142" width="313" height="137.72" rx="40" fill="#01040E"/>
<path d="M749.297 243.485V233.062H766.48C769.548 233.062 771.927 232.123 773.617 230.245C775.37 228.367 776.246 226.145 776.246 223.579C776.246 221.826 775.87 220.229 775.119 218.79C774.368 217.35 773.241 216.223 771.739 215.409C770.299 214.533 768.546 214.095 766.48 214.095H749.297V203.766H765.072C767.701 203.766 769.798 203.108 771.363 201.794C772.991 200.479 773.805 198.507 773.805 195.878C773.805 193.186 772.991 191.183 771.363 189.868C769.798 188.554 767.701 187.897 765.072 187.897H749.297V177.474H766.574C770.956 177.474 774.618 178.287 777.561 179.915C780.565 181.48 782.819 183.577 784.321 186.206C785.824 188.773 786.575 191.59 786.575 194.657C786.575 198.413 785.417 201.669 783.101 204.423C780.847 207.115 777.529 209.118 773.147 210.433L773.711 206.301C778.594 207.678 782.35 209.963 784.979 213.156C787.671 216.286 789.016 220.073 789.016 224.518C789.016 228.023 788.14 231.216 786.387 234.095C784.697 236.912 782.193 239.197 778.875 240.95C775.62 242.64 771.645 243.485 766.95 243.485H749.297ZM739.907 243.485V177.474H752.583V243.485H739.907Z" fill="white"/>
<path d="M799.144 243.485V177.474H811.915V243.485H799.144ZM808.534 243.485V232.217H845.062V243.485H808.534ZM808.534 215.221V204.329H841.775V215.221H808.534ZM808.534 188.742V177.474H844.592V188.742H808.534Z" fill="white"/>
<path d="M869.861 243.485V178.882H882.725V243.485H869.861ZM848.827 188.836V177.474H903.759V188.836H848.827Z" fill="white"/>
<path d="M899.074 243.485L925.648 177.474H936.07L962.55 243.485H948.935L928.465 189.305H933.16L912.408 243.485H899.074ZM913.159 231.184V220.48H948.653V231.184H913.159Z" fill="white"/>
<path d="M418.343 279C408.357 279 399.067 277.294 390.471 273.882C382.002 270.343 374.545 265.415 368.098 259.096C361.778 252.777 356.848 245.448 353.309 237.107C349.77 228.64 348 219.541 348 209.81C348 200.08 349.77 191.044 353.309 182.703C356.848 174.236 361.778 166.907 368.098 160.714C374.418 154.522 381.813 149.72 390.282 146.308C398.877 142.769 408.168 141 418.154 141C428.772 141 438.189 142.706 446.405 146.118C454.747 149.53 462.016 154.206 468.209 160.146L448.301 180.239C444.761 176.448 440.464 173.478 435.408 171.33C430.478 169.181 424.727 168.107 418.154 168.107C412.339 168.107 406.967 169.118 402.037 171.14C397.234 173.036 393.063 175.816 389.523 179.481C386.111 183.146 383.393 187.569 381.37 192.75C379.474 197.931 378.526 203.618 378.526 209.81C378.526 216.129 379.474 221.879 381.37 227.06C383.393 232.242 386.111 236.665 389.523 240.33C393.063 243.995 397.234 246.838 402.037 248.86C406.967 250.882 412.339 251.893 418.154 251.893C424.979 251.893 430.92 250.819 435.976 248.67C441.033 246.522 445.394 243.552 449.059 239.761L469.157 259.854C462.711 265.794 455.316 270.47 446.974 273.882C438.757 277.294 429.214 279 418.343 279Z" fill="black"/>
<path d="M527.262 276.915L475.69 143.085H507.543L546.791 251.324H533.709L573.526 143.085H605L552.859 276.915H527.262Z" fill="black"/>
<defs>
<linearGradient id="paint0_linear_197_34" x1="130.426" y1="62.7817" x2="130.426" y2="363.987" gradientUnits="userSpaceOnUse">
<stop stop-color="#02B1EA"/>
<stop offset="1" stop-color="#4647FC"/>
</linearGradient>
</defs>
</svg>
